<svg xmlns:xlink="http://www.w3.org/1999/xlink" xmlns:svgjs="http://svgjs.dev/svgjs" xmlns="http://www.w3.org/2000/svg"
     version="1.1" width="1440" height="560" preserveAspectRatio="none" viewBox="0 0 1440 560">
    <g mask="url(&quot;#SvgjsMask1842&quot;)" fill="none">
        <rect width="1440" height="560" x="0" y="0" fill="url(&quot;#SvgjsLinearGradient1843&quot;)"></rect>
        <path d="M0 0L405.13 0L0 220.71z" fill="rgba(255, 255, 255, .1)"></path>
        <path d="M0 220.71L405.13 0L608.41 0L0 294z" fill="rgba(255, 255, 255, .075)"></path>
        <path d="M0 294L608.41 0L763.79 0L0 395.03z" fill="rgba(255, 255, 255, .05)"></path>
        <path d="M0 395.03L763.79 0L1070.58 0L0 499.97999999999996z" fill="rgba(255, 255, 255, .025)"></path>
        <path d="M1440 560L819.84 560L1440 317.64z" fill="rgba(0, 0, 0, .1)"></path>
        <path d="M1440 317.64L819.84 560L609.4300000000001 560L1440 187.98999999999998z"
              fill="rgba(0, 0, 0, .075)"></path>
        <path d="M1440 187.99L609.4300000000001 560L598.19 560L1440 76.9z" fill="rgba(0, 0, 0, .05)"></path>
        <path d="M1440 76.89999999999998L598.19 560L174.92000000000007 560L1440 29.839999999999975z"
              fill="rgba(0, 0, 0, .025)"></path>
    </g>
    <defs>
        <mask id="SvgjsMask1842">
            <rect width="1440" height="560" fill="#ffffff"></rect>
        </mask>
        <linearGradient x1="15.28%" y1="-39.29%" x2="84.72%" y2="139.29%" gradientUnits="userSpaceOnUse"
                        id="SvgjsLinearGradient1843">
            <stop stop-color="rgba(83, 29, 29, 1)" offset="0"></stop>
            <stop stop-color="rgba(249, 0, 0, 1)" offset="0.61"></stop>
        </linearGradient>
    </defs>
</svg>
