<svg xmlns="http://www.w3.org/2000/svg" version="1.1" xmlns:xlink="http://www.w3.org/1999/xlink" xmlns:svgjs="http://svgjs.dev/svgjs" width="1440" height="560" preserveAspectRatio="none" viewBox="0 0 1440 560"><g mask="url(&quot;#SvgjsMask2659&quot;)" fill="none"><rect width="1440" height="560" x="0" y="0" fill="rgba(255, 255, 255, 1)"></rect><circle r="75.70928172294262" cx="117.39" cy="78.63" fill="rgba(255, 1, 0, 0.21)"></circle><rect width="89.4" height="89.4" clip-path="url(&quot;#SvgjsClipPath2660&quot;)" x="-14.09" y="394.26" fill="url(&quot;#SvgjsPattern2661&quot;)" transform="rotate(93.2, 30.61, 438.96)"></rect><path d="M1362.4 63.92a5.6 5.6 0 1 0 9.36-6.15 5.6 5.6 0 1 0-9.36 6.15zM1375.78 55.14a5.6 5.6 0 1 0 9.36-6.15 5.6 5.6 0 1 0-9.36 6.15zM1389.15 46.36a5.6 5.6 0 1 0 9.37-6.15 5.6 5.6 0 1 0-9.37 6.15zM1402.53 37.58a5.6 5.6 0 1 0 9.36-6.15 5.6 5.6 0 1 0-9.36 6.15zM1344.43 94.85a5.6 5.6 0 1 0 9.36-6.14 5.6 5.6 0 1 0-9.36 6.14zM1357.8 86.07a5.6 5.6 0 1 0 9.37-6.14 5.6 5.6 0 1 0-9.37 6.14zM1371.18 77.29a5.6 5.6 0 1 0 9.36-6.14 5.6 5.6 0 1 0-9.36 6.14zM1384.56 68.51a5.6 5.6 0 1 0 9.36-6.14 5.6 5.6 0 1 0-9.36 6.14z" stroke="rgba(86, 1, 1, 0.19)" stroke-width="2.38" stroke-dasharray="2, 2"></path><rect width="212.16" height="212.16" clip-path="url(&quot;#SvgjsClipPath2662&quot;)" x="817.94" y="91.91" fill="url(&quot;#SvgjsPattern2663&quot;)" transform="rotate(66.27, 924.02, 197.99)"></rect><rect width="264" height="264" clip-path="url(&quot;#SvgjsClipPath2664&quot;)" x="502.2" y="228.4" fill="url(&quot;#SvgjsPattern2665&quot;)" transform="rotate(323.53, 634.2, 360.4)"></rect><rect width="108" height="108" clip-path="url(&quot;#SvgjsClipPath2666&quot;)" x="1345.45" y="486.68" fill="url(&quot;#SvgjsPattern2667&quot;)" transform="rotate(97.35, 1399.45, 540.68)"></rect><path d="M887.0500000000001 227.11 L1047.18 240.65L868.6615567394996 332.3334432605004z" stroke="rgba(86, 1, 1, 0.19)" stroke-width="2.07" stroke-dasharray="3, 2"></path><circle r="66.96919711278694" cx="448.97" cy="384.07" stroke="rgba(255, 1, 0, 0.21)" stroke-width="1.35" stroke-dasharray="2, 2"></circle><rect width="372" height="372" clip-path="url(&quot;#SvgjsClipPath2668&quot;)" x="638.63" y="-147.47" fill="url(&quot;#SvgjsPattern2669&quot;)" transform="rotate(226.19, 824.63, 38.53)"></rect><rect width="216" height="216" clip-path="url(&quot;#SvgjsClipPath2670&quot;)" x="714.74" y="312.3" fill="url(&quot;#SvgjsPattern2671&quot;)" transform="rotate(332.43, 822.74, 420.3)"></rect><rect width="122.6" height="122.6" clip-path="url(&quot;#SvgjsClipPath2672&quot;)" x="1370.77" y="429.15" fill="url(&quot;#SvgjsPattern2673&quot;)" transform="rotate(262.06, 1432.07, 490.45)"></rect><rect width="380.8" height="380.8" clip-path="url(&quot;#SvgjsClipPath2674&quot;)" x="-114.49" y="55.2" fill="url(&quot;#SvgjsPattern2675&quot;)" transform="rotate(107.75, 75.91, 245.6)"></rect></g><defs><mask id="SvgjsMask2659"><rect width="1440" height="560" fill="#ffffff"></rect></mask><pattern x="0" y="0" width="89.4" height="8.94" patternUnits="userSpaceOnUse" id="SvgjsPattern2661"><rect width="89.4" height="4.47" x="0" y="0" fill="rgba(176, 0, 0, 0.2)"></rect><rect width="89.4" height="4.47" x="0" y="4.47" fill="rgba(0, 0, 0, 0)"></rect></pattern><clipPath id="SvgjsClipPath2660"><circle r="22.35" cx="30.61" cy="438.96"></circle></clipPath><pattern x="0" y="0" width="13.26" height="13.26" patternUnits="userSpaceOnUse" id="SvgjsPattern2663"><path d="M0 13.26L6.63 0L13.26 13.26" stroke="rgba(255, 1, 0, 0.21)" fill="none"></path></pattern><clipPath id="SvgjsClipPath2662"><circle r="53.04" cx="924.02" cy="197.99"></circle></clipPath><pattern x="0" y="0" width="264" height="6" patternUnits="userSpaceOnUse" id="SvgjsPattern2665"><rect width="264" height="3" x="0" y="0" fill="rgba(255, 1, 0, 0.21)"></rect><rect width="264" height="3" x="0" y="3" fill="rgba(0, 0, 0, 0)"></rect></pattern><clipPath id="SvgjsClipPath2664"><circle r="66" cx="634.2" cy="360.4"></circle></clipPath><pattern x="0" y="0" width="6" height="6" patternUnits="userSpaceOnUse" id="SvgjsPattern2667"><path d="M0 6L3 0L6 6" stroke="rgba(255, 1, 0, 0.21)" fill="none"></path></pattern><clipPath id="SvgjsClipPath2666"><circle r="27" cx="1399.45" cy="540.68"></circle></clipPath><pattern x="0" y="0" width="372" height="6" patternUnits="userSpaceOnUse" id="SvgjsPattern2669"><rect width="372" height="3" x="0" y="0" fill="rgba(255, 1, 0, 0.21)"></rect><rect width="372" height="3" x="0" y="3" fill="rgba(0, 0, 0, 0)"></rect></pattern><clipPath id="SvgjsClipPath2668"><circle r="93" cx="824.63" cy="38.53"></circle></clipPath><pattern x="0" y="0" width="6" height="6" patternUnits="userSpaceOnUse" id="SvgjsPattern2671"><path d="M0 6L3 0L6 6" stroke="rgba(255, 1, 0, 0.21)" fill="none"></path></pattern><clipPath id="SvgjsClipPath2670"><circle r="54" cx="822.74" cy="420.3"></circle></clipPath><pattern x="0" y="0" width="122.6" height="12.26" patternUnits="userSpaceOnUse" id="SvgjsPattern2673"><rect width="122.6" height="6.13" x="0" y="0" fill="rgba(255, 1, 0, 0.21)"></rect><rect width="122.6" height="6.13" x="0" y="6.13" fill="rgba(0, 0, 0, 0)"></rect></pattern><clipPath id="SvgjsClipPath2672"><circle r="30.65" cx="1432.07" cy="490.45"></circle></clipPath><pattern x="0" y="0" width="9.52" height="9.52" patternUnits="userSpaceOnUse" id="SvgjsPattern2675"><path d="M4.76 1L4.76 8.52M1 4.76L8.52 4.76" stroke="rgba(255, 1, 0, 0.21)" fill="none" stroke-width="1"></path></pattern><clipPath id="SvgjsClipPath2674"><circle r="95.2" cx="75.91" cy="245.6"></circle></clipPath></defs></svg>