<svg xmlns:xlink="http://www.w3.org/1999/xlink" xmlns:svgjs="http://svgjs.dev/svgjs" xmlns="http://www.w3.org/2000/svg"
     version="1.1" width="1440" height="560" preserveAspectRatio="none" viewBox="0 0 1440 560">
    <g mask="url(&quot;#SvgjsMask1129&quot;)" fill="none">
        <rect width="1440" height="560" x="0" y="0" fill="rgba(255, 255, 255, 1)"></rect>
        <path d="M349.86 56.76L392.71 56.76L392.71 99.61L349.86 99.61z" fill="rgba(255, 0, 0, 0.15)"></path>
        <path d="M796.85 277.02a48.3 48.3 0 1 0-63.58-72.73z" fill="rgba(255, 1, 0, 0.21)"></path>
        <path d="M1382.11 80.88L1421.23 80.88L1421.23 120L1382.11 120z" stroke="rgba(255, 0, 0, 0.15)"></path>
        <path d="M1185 69.85a37.44 37.44 0 1 0 74.04-11.14z" fill="rgba(159, 0, 0, 0.16)"></path>
        <path d="M1156 187.3a15.13 15.13 0 1 0 15.81-25.8z" fill="rgba(255, 0, 0, 0.15)"></path>
        <path d="M1404.24 34.24 a1.51 1.51 0 1 0 3.02 0 a1.51 1.51 0 1 0 -3.02 0z"
              stroke="rgba(159, 0, 0, 0.16)"></path>
        <path d="M1123.56 337.5L1160.44 337.5L1160.44 357.51L1123.56 357.51z" fill="rgba(159, 0, 0, 0.16)"></path>
        <path d="M1270.02 89.69 a0.91 0.91 0 1 0 1.82 0 a0.91 0.91 0 1 0 -1.82 0z" fill="rgba(255, 1, 0, 0.21)"></path>
        <path d="M393.24 186.71 a2.44 2.44 0 1 0 4.88 0 a2.44 2.44 0 1 0 -4.88 0z" fill="rgba(255, 0, 0, 0.15)"></path>
        <path d="M393.23 471.96L416.54 471.96L416.54 475.23L393.23 475.23z" fill="rgba(255, 1, 0, 0.21)"></path>
        <path d="M1156.95 500.32 a46.01 46.01 0 1 0 92.02 0 a46.01 46.01 0 1 0 -92.02 0z"
              fill="rgba(255, 1, 0, 0.21)"></path>
        <path d="M1096.83 412.95a28.77 28.77 0 1 0 39.17 42.16z" fill="rgba(255, 0, 0, 0.15)"></path>
        <path d="M1386.92 361.6 a15.16 15.16 0 1 0 30.32 0 a15.16 15.16 0 1 0 -30.32 0z"
              stroke="rgba(255, 0, 0, 0.15)"></path>
        <path d="M722.06 283.81L725.56 283.81L725.56 286.29L722.06 286.29z" stroke="rgba(159, 0, 0, 0.16)"></path>
        <path d="M1358.89 295.19L1398.79 295.19L1398.79 335.09L1358.89 335.09z" stroke="rgba(159, 0, 0, 0.16)"></path>
        <path d="M1249.26 270.93L1280.44 270.93L1280.44 302.11L1249.26 302.11z" stroke="rgba(255, 0, 0, 0.15)"></path>
        <path d="M271.53 189.27 a46.06 46.06 0 1 0 92.12 0 a46.06 46.06 0 1 0 -92.12 0z"
              fill="rgba(255, 1, 0, 0.21)"></path>
        <path d="M1126.19 381.36 a26.03 26.03 0 1 0 52.06 0 a26.03 26.03 0 1 0 -52.06 0z"
              fill="rgba(255, 1, 0, 0.21)"></path>
        <path d="M109.22 312.77L120.7 312.77L120.7 324.25L109.22 324.25z" fill="rgba(255, 0, 0, 0.15)"></path>
        <path d="M762.31 396.9L778.23 396.9L778.23 412.82L762.31 412.82z" fill="rgba(255, 1, 0, 0.21)"></path>
        <path d="M45.15 73.03L78.58 73.03L78.58 106.46L45.15 106.46z" fill="rgba(255, 0, 0, 0.15)"></path>
        <path d="M1253.26 276.58L1307.31 276.58L1307.31 307.78L1253.26 307.78z" stroke="rgba(255, 1, 0, 0.21)"></path>
        <path d="M238.74 472.55L247.96 472.55L247.96 484.58L238.74 484.58z" fill="rgba(255, 0, 0, 0.15)"></path>
        <path d="M417.32 244.67L450.06 244.67L450.06 277.41L417.32 277.41z" stroke="rgba(255, 0, 0, 0.15)"></path>
        <path d="M89.06 337.83a22.96 22.96 0 1 0-15.95 43.06z" fill="rgba(159, 0, 0, 0.16)"></path>
        <path d="M1293.4 63.43L1340.8 63.43L1340.8 110.83L1293.4 110.83z" stroke="rgba(159, 0, 0, 0.16)"></path>
        <path d="M469.48 281.95L471.76 281.95L471.76 284.23L469.48 284.23z" fill="rgba(159, 0, 0, 0.16)"></path>
        <path d="M1143.73 225.37L1170.56 225.37L1170.56 252.2L1143.73 252.2z" fill="rgba(255, 1, 0, 0.21)"></path>
        <path d="M36.43 13.67L62.61 13.67L62.61 64.5L36.43 64.5z" fill="rgba(255, 0, 0, 0.15)"></path>
        <path d="M3.6 212.96 a55.85 55.85 0 1 0 111.7 0 a55.85 55.85 0 1 0 -111.7 0z"
              stroke="rgba(159, 0, 0, 0.16)"></path>
        <path d="M1082.33 47.92 a40.5 40.5 0 1 0 81 0 a40.5 40.5 0 1 0 -81 0z" stroke="rgba(159, 0, 0, 0.16)"></path>
        <path d="M1194.85 80.05L1245.73 80.05L1245.73 86.62L1194.85 86.62z" fill="rgba(159, 0, 0, 0.16)"></path>
        <path d="M358.98 437.52 a36.42 36.42 0 1 0 72.84 0 a36.42 36.42 0 1 0 -72.84 0z"
              stroke="rgba(255, 1, 0, 0.21)"></path>
    </g>
    <defs>
        <mask id="SvgjsMask1129">
            <rect width="1440" height="560" fill="#ffffff"></rect>
        </mask>
    </defs>
</svg>
